<?xml version="1.0" encoding="utf-8"?>
<!-- Generator: Adobe Illustrator 24.1.2, SVG Export Plug-In . SVG Version: 6.00 Build 0)  -->
<svg version="1.1" id="Layer_1" xmlns="http://www.w3.org/2000/svg" xmlns:xlink="http://www.w3.org/1999/xlink" x="0px" y="0px"
	 viewBox="0 0 120.6 120.7" style="enable-background:new 0 0 120.6 120.7;" xml:space="preserve">
<path d="M60.3,0C27,0,0,27,0,60.4c0,33.3,27,60.3,60.3,60.3s60.3-27,60.3-60.3C120.7,27,93.6,0,60.3,0z M98,65.9L65.9,98
	c-3,3-8,3-11,0L22.7,65.9c-3-3-3-8,0-11l32.1-32.1c3-3,8-3,11,0L98,54.9C101,57.9,101,62.8,98,65.9z"/>
</svg>
